HIERARCHY
ROOT Root
{
  OFFSET 0.0 0.0 0.0
  CHANNELS 6 Xposition Yposition Zposition Zrotation Yrotation Xrotation
  JOINT Hips
  {
    OFFSET 0.0 100.0 0.0
    CHANNELS 6 Xposition Yposition Zposition Zrotation Yrotation Xrotation
    JOINT Spine1
    {
      OFFSET 5.003913 -0.037094 -0.013727
      CHANNELS 3 Zrotation Yrotation Xrotation
      JOINT Spine2
      {
        OFFSET 7.125363 -1e-06 0.0
        CHANNELS 3 Zrotation Yrotation Xrotation
        JOINT Chest
        {
          OFFSET 7.594027 1e-06 0.0
          CHANNELS 3 Zrotation Yrotation Xrotation
          JOINT Neck1
          {
            OFFSET 26.313086 -0.460272 -0.181672
            CHANNELS 3 Zrotation Yrotation Xrotation
            JOINT Neck2
            {
              OFFSET 8.045911 0.0 0.0
              CHANNELS 3 Zrotation Yrotation Xrotation
              JOINT Head
              {
                OFFSET 6.432774 0.0 0.0
                CHANNELS 3 Zrotation Yrotation Xrotation
                JOINT HeadEnd
                {
                  OFFSET 16.169773 0.06451 0.00362
                  CHANNELS 3 Zrotation Yrotation Xrotation
                }
                JOINT Jaw
                {
                  OFFSET 0.108741 3.12938 0.002639
                  CHANNELS 3 Zrotation Yrotation Xrotation
                }
                JOINT LeftEye
                {
                  OFFSET 4.45173 8.166359 3.206392
                  CHANNELS 3 Zrotation Yrotation Xrotation
                }
                JOINT RightEye
                {
                  OFFSET 4.436895 8.135758 -3.222429
                  CHANNELS 3 Zrotation Yrotation Xrotation
                }
              }
            }
          }
          JOINT LeftShoulder
          {
            OFFSET 23.218927 5.195579 1.621656
            CHANNELS 3 Zrotation Yrotation Xrotation
            JOINT LeftArm
            {
              OFFSET 15.902118 2e-06 -2e-06
              CHANNELS 3 Zrotation Yrotation Xrotation
              JOINT LeftForeArm
              {
                OFFSET 28.739307 0.0 -1e-06
                CHANNELS 3 Zrotation Yrotation Xrotation
                JOINT LeftHand
                {
                  OFFSET 27.093981 -4e-06 0.0
                  CHANNELS 3 Zrotation Yrotation Xrotation
                  JOINT LeftHandThumb1
                  {
                    OFFSET 2.276781 3.380274 0.83384
                    CHANNELS 3 Zrotation Yrotation Xrotation
                    JOINT LeftHandThumb2
                    {
                      OFFSET 4.705309 -1e-06 -1e-06
                      CHANNELS 3 Zrotation Yrotation Xrotation
                      JOINT LeftHandThumb3
                      {
                        OFFSET 2.798515 0.0 3e-06
                        CHANNELS 3 Zrotation Yrotation Xrotation
                        JOINT LeftHandThumbEnd
                        {
                          OFFSET 3.180793 4e-06 -4e-06
                          CHANNELS 3 Zrotation Yrotation Xrotation
                        }
                      }
                    }
                  }
                  JOINT LeftHandIndex1
                  {
                    OFFSET 3.247786 2.352677 0.137192
                    CHANNELS 3 Zrotation Yrotation Xrotation
                    JOINT LeftHandIndex2
                    {
                      OFFSET 6.367095 1e-06 0.0
                      CHANNELS 3 Zrotation Yrotation Xrotation
                      JOINT LeftHandIndex3
                      {
                        OFFSET 3.662364 0.0 0.0
                        CHANNELS 3 Zrotation Yrotation Xrotation
                        JOINT LeftHandIndex4
                        {
                          OFFSET 2.329242 4e-06 -4e-06
                          CHANNELS 3 Zrotation Yrotation Xrotation
                          JOINT LeftHandIndexEnd
                          {
                            OFFSET 2.767823 1e-06 0.0
                            CHANNELS 3 Zrotation Yrotation Xrotation
                          }
                        }
                      }
                    }
                  }
                  JOINT LeftHandMiddle1
                  {
                    OFFSET 3.163612 0.945023 -0.406112
                    CHANNELS 3 Zrotation Yrotation Xrotation
                    JOINT LeftHandMiddle2
                    {
                      OFFSET 6.276789 3e-06 0.0
                      CHANNELS 3 Zrotation Yrotation Xrotation
                      JOINT LeftHandMiddle3
                      {
                        OFFSET 4.35652 -1e-06 4e-06
                        CHANNELS 3 Zrotation Yrotation Xrotation
                        JOINT LeftHandMiddle4
                        {
                          OFFSET 2.996877 0.0 8e-06
                          CHANNELS 3 Zrotation Yrotation Xrotation
                          JOINT LeftHandMiddleEnd
                          {
                            OFFSET 2.323256 3e-06 -4e-06
                            CHANNELS 3 Zrotation Yrotation Xrotation
                          }
                        }
                      }
                    }
                  }
                  JOINT LeftHandRing1
                  {
                    OFFSET 2.882606 -0.309162 0.107445
                    CHANNELS 3 Zrotation Yrotation Xrotation
                    JOINT LeftHandRing2
                    {
                      OFFSET 6.033198 0.0 4e-06
                      CHANNELS 3 Zrotation Yrotation Xrotation
                      JOINT LeftHandRing3
                      {
                        OFFSET 4.350578 3e-06 0.0
                        CHANNELS 3 Zrotation Yrotation Xrotation
                        JOINT LeftHandRing4
                        {
                          OFFSET 2.651321 2e-06 -7e-06
                          CHANNELS 3 Zrotation Yrotation Xrotation
                          JOINT LeftHandRingEnd
                          {
                            OFFSET 1.937663 1e-06 -4e-06
                            CHANNELS 3 Zrotation Yrotation Xrotation
                          }
                        }
                      }
                    }
                  }
                  JOINT LeftHandPinky1
                  {
                    OFFSET 2.865315 -1.525436 0.575687
                    CHANNELS 3 Zrotation Yrotation Xrotation
                    JOINT LeftHandPinky2
                    {
                      OFFSET 5.54936 1e-06 -8e-06
                      CHANNELS 3 Zrotation Yrotation Xrotation
                      JOINT LeftHandPinky3
                      {
                        OFFSET 3.070974 0.0 -4e-06
                        CHANNELS 3 Zrotation Yrotation Xrotation
                        JOINT LeftHandPinky4
                        {
                          OFFSET 1.549672 1e-06 0.0
                          CHANNELS 3 Zrotation Yrotation Xrotation
                          JOINT LeftHandPinkyEnd
                          {
                            OFFSET 1.952123 0.0 0.0
                            CHANNELS 3 Zrotation Yrotation Xrotation
                          }
                        }
                      }
                    }
                  }
                }
              }
            }
          }
          JOINT RightShoulder
          {
            OFFSET 23.161716 5.296122 -1.380114
            CHANNELS 3 Zrotation Yrotation Xrotation
            JOINT RightArm
            {
              OFFSET -16.027195 -2e-06 1.1e-05
              CHANNELS 3 Zrotation Yrotation Xrotation
              JOINT RightForeArm
              {
                OFFSET -28.736639 4e-06 2e-06
                CHANNELS 3 Zrotation Yrotation Xrotation
                JOINT RightHand
                {
                  OFFSET -27.133619 6e-06 0.0
                  CHANNELS 3 Zrotation Yrotation Xrotation
                  JOINT RightHandThumb1
                  {
                    OFFSET -2.274328 -3.351035 -0.83067
                    CHANNELS 3 Zrotation Yrotation Xrotation
                    JOINT RightHandThumb2
                    {
                      OFFSET -4.703594 -3e-06 2e-06
                      CHANNELS 3 Zrotation Yrotation Xrotation
                      JOINT RightHandThumb3
                      {
                        OFFSET -2.794935 -4e-06 -3e-06
                        CHANNELS 3 Zrotation Yrotation Xrotation
                        JOINT RightHandThumbEnd
                        {
                          OFFSET -3.183852 4e-06 1e-06
                          CHANNELS 3 Zrotation Yrotation Xrotation
                        }
                      }
                    }
                  }
                  JOINT RightHandIndex1
                  {
                    OFFSET -3.253496 -2.33755 -0.127667
                    CHANNELS 3 Zrotation Yrotation Xrotation
                    JOINT RightHandIndex2
                    {
                      OFFSET -6.344434 0.0 0.0
                      CHANNELS 3 Zrotation Yrotation Xrotation
                      JOINT RightHandIndex3
                      {
                        OFFSET -3.654871 0.0 -8e-06
                        CHANNELS 3 Zrotation Yrotation Xrotation
                        JOINT RightHandIndex4
                        {
                          OFFSET -2.327586 -1e-06 0.0
                          CHANNELS 3 Zrotation Yrotation Xrotation
                          JOINT RightHandIndexEnd
                          {
                            OFFSET -2.770001 3e-06 8e-06
                            CHANNELS 3 Zrotation Yrotation Xrotation
                          }
                        }
                      }
                    }
                  }
                  JOINT RightHandMiddle1
                  {
                    OFFSET -3.168223 -0.944764 0.411762
                    CHANNELS 3 Zrotation Yrotation Xrotation
                    JOINT RightHandMiddle2
                    {
                      OFFSET -6.266691 -1e-06 -4e-06
                      CHANNELS 3 Zrotation Yrotation Xrotation
                      JOINT RightHandMiddle3
                      {
                        OFFSET -4.348901 0.0 0.0
                        CHANNELS 3 Zrotation Yrotation Xrotation
                        JOINT RightHandMiddle4
                        {
                          OFFSET -3.00024 2e-06 -4e-06
                          CHANNELS 3 Zrotation Yrotation Xrotation
                          JOINT RightHandMiddleEnd
                          {
                            OFFSET -2.321477 -4e-06 -4e-06
                            CHANNELS 3 Zrotation Yrotation Xrotation
                          }
                        }
                      }
                    }
                  }
                  JOINT RightHandRing1
                  {
                    OFFSET -2.885654 0.293261 -0.119232
                    CHANNELS 3 Zrotation Yrotation Xrotation
                    JOINT RightHandRing2
                    {
                      OFFSET -6.032835 -1e-06 -4e-06
                      CHANNELS 3 Zrotation Yrotation Xrotation
                      JOINT RightHandRing3
                      {
                        OFFSET -4.33881 0.0 -4e-06
                        CHANNELS 3 Zrotation Yrotation Xrotation
                        JOINT RightHandRing4
                        {
                          OFFSET -2.654903 -4e-06 -4e-06
                          CHANNELS 3 Zrotation Yrotation Xrotation
                          JOINT RightHandRingEnd
                          {
                            OFFSET -1.935122 0.0 4e-06
                            CHANNELS 3 Zrotation Yrotation Xrotation
                          }
                        }
                      }
                    }
                  }
                  JOINT RightHandPinky1
                  {
                    OFFSET -2.866241 1.503904 -0.60527
                    CHANNELS 3 Zrotation Yrotation Xrotation
                    JOINT RightHandPinky2
                    {
                      OFFSET -5.553177 -2e-06 0.0
                      CHANNELS 3 Zrotation Yrotation Xrotation
                      JOINT RightHandPinky3
                      {
                        OFFSET -3.062664 -1e-06 -4e-06
                        CHANNELS 3 Zrotation Yrotation Xrotation
                        JOINT RightHandPinky4
                        {
                          OFFSET -1.546529 2e-06 4e-06
                          CHANNELS 3 Zrotation Yrotation Xrotation
                          JOINT RightHandPinkyEnd
                          {
                            OFFSET -1.952341 0.0 -4e-06
                            CHANNELS 3 Zrotation Yrotation Xrotation
                          }
                        }
                      }
                    }
                  }
                }
              }
            }
          }
        }
      }
    }
    JOINT LeftLeg
    {
      OFFSET -8.443107 2.567604 10.043214
      CHANNELS 3 Zrotation Yrotation Xrotation
      JOINT LeftShin
      {
        OFFSET 43.229198 1e-06 -1e-06
        CHANNELS 3 Zrotation Yrotation Xrotation
        JOINT LeftFoot
        {
          OFFSET 42.298611 1e-06 1e-06
          CHANNELS 3 Zrotation Yrotation Xrotation
          JOINT LeftToeBase
          {
            OFFSET 14.165858 1e-06 0.0
            CHANNELS 3 Zrotation Yrotation Xrotation
            JOINT LeftToeEnd
            {
              OFFSET 6.7141 -0.234461 0.0
              CHANNELS 3 Zrotation Yrotation Xrotation
            }
          }
        }
      }
    }
    JOINT RightLeg
    {
      OFFSET -8.303923 2.592729 -10.047278
      CHANNELS 3 Zrotation Yrotation Xrotation
      JOINT RightShin
      {
        OFFSET -43.369682 0.0 1e-06
        CHANNELS 3 Zrotation Yrotation Xrotation
        JOINT RightFoot
        {
          OFFSET -42.260784 4e-06 2e-06
          CHANNELS 3 Zrotation Yrotation Xrotation
          JOINT RightToeBase
          {
            OFFSET -14.222245 -2e-06 -1e-06
            CHANNELS 3 Zrotation Yrotation Xrotation
            JOINT RightToeEnd
            {
              OFFSET -6.660062 0.232574 -2e-06
              CHANNELS 3 Zrotation Yrotation Xrotation
            }
          }
        }
      }
    }
  }
}
MOTION
Frames: 5
Frame Time: 0.03333333333333333
0.0 0.0 0.0 0.0 -0.0 0.0 -0.958152 99.800301 5.924088 90.049812 5.00983 89.879768 0.214958 0.584851 -0.233644 -10.646894 -0.735937 -0.107848 16.587898 -0.08365 -2.12366 19.189844 5.257983 2.738008 -2.458774 -0.579548 -0.203202 -31.891701 -0.634052 -0.073031 5e-06 -0.0 0.0 0.072551 0.00232 0.002122 0.082437 0.01272 -0.00166 0.063984 -0.005311 0.009237 -133.729172 -74.761475 148.058182 31.908117 -56.228016 9.376505 26.706264 0.08673 -0.023947 4.182314 -2.777604 9.705659 17.636633 -26.322725 52.411182 -19.466658 -14.395598 29.410385 0.0 -8.774822 -1e-06 16.079153 -18.246037 6.134452 -0.609777 -1.795653 -3.889327 -4.807087 -11.046811 -2.93785 3e-06 -20.976019 -4e-06 -5.019972 -25.03356 -4.031878 6e-06 1e-06 -2e-06 -10.634535 -5.68697 -3.56559 10.573272 -17.922951 -3.1139 1e-06 -13.821208 -2e-06 -0.501778 -31.181505 -4.027017 -11.679775 -59.702808 7.712459 -13.982717 -7.150198 -2.875041 13.772732 -8.401491 -3.218243 0.347732 -34.211555 0.771652 -0.963029 -17.733372 2.621019 0.0 -0.0 -0.0 -17.346422 -20.095219 -4.201783 21.757561 -1.638374 3.86643 0.0 -6.338824 0.0 -1.697593 -22.591745 -6.194003 0.0 -5e-06 -3e-06 23.673258 -65.25589 173.489487 34.196064 -47.127728 9.975346 29.702776 -0.285537 0.060202 -0.781826 -3.506893 14.209814 22.182117 -20.375898 49.933319 -16.701813 -16.74353 28.476532 -2e-06 -12.690603 -0.0 16.075052 -17.880257 2.603142 -0.105919 -1.513857 -4.275878 -5.039042 -5.612872 -2.953556 2e-06 -11.020523 -2e-06 -6.1113 -15.895334 -3.840471 -0.0 -0.0 -1e-06 -10.283373 -5.68029 -4.341836 11.028294 -11.302404 -2.372636 -1.384271 -14.238581 -6.320118 -0.62544 -26.924191 -3.8276 -4.32012 -49.943356 -3.852857 -13.708526 -7.363477 -3.720938 18.14115 -14.052739 -3.242675 5e-06 -18.78727 -1e-06 -0.42971 -8.456043 2.555501 1e-06 -1e-06 -1e-06 -15.923541 -20.094484 -5.47358 30.419214 -7.190824 1.73593 3e-06 -8.162927 -2e-06 -1.861902 -22.861473 -6.167942 -1e-06 -3e-06 -1e-06 -178.25386 -5.527256 -10.544645 13.330667 -0.015565 0.057322 -78.376564 2.405776 -5.192725 -4.775444 1.496528 2.151144 -0.999998 -0.0 0.0 0.102611 -4.375423 -13.223913 15.765142 -0.012474 -0.138347 -79.112762 1.605011 -5.279234 -4.80181 0.652353 1.646337 -1.000002 -0.0 -0.0 
0.0 0.0 0.0 0.0 -0.0 0.0 -0.962094 99.813339 5.915251 90.042076 4.964325 89.926178 0.177318 0.561417 -0.240875 -10.645176 -0.721194 -0.07193 16.56406 -0.072839 -2.184405 19.110628 5.318379 2.733591 -2.43482 -0.582396 -0.179001 -31.805206 -0.638303 -0.065257 5e-06 -0.0 -0.0 0.070319 -0.000614 0.01609 0.089815 0.010907 0.014482 0.071028 -0.009196 0.020515 -133.717972 -74.807518 148.019852 31.948153 -56.232994 9.233751 26.699415 0.043541 -0.082211 4.116224 -2.880717 9.845704 17.636625 -26.322731 52.41119 -19.46666 -14.395596 29.410389 -0.0 -8.774819 1e-06 16.094734 -18.205019 6.101055 -0.609777 -1.795654 -3.889324 -4.807087 -11.046809 -2.93785 4e-06 -20.976017 -3e-06 -5.019974 -25.033552 -4.031879 6e-06 0.0 1e-06 -10.634533 -5.686971 -3.565585 10.573272 -17.922949 -3.113901 3e-06 -13.821206 -2e-06 -0.50178 -31.181498 -4.027009 -11.634773 -59.678062 7.733183 -13.982712 -7.150196 -2.875042 13.77273 -8.401491 -3.218242 0.347733 -34.211544 0.771654 -0.963029 -17.73337 2.621019 -1e-06 -1e-06 -0.0 -17.346416 -20.095217 -4.201782 21.757555 -1.638374 3.866427 1e-06 -6.338823 -0.0 -1.697588 -22.591743 -6.194005 -0.0 -3e-06 -2e-06 23.590744 -65.159294 173.618088 34.157299 -47.016361 9.854919 29.561565 -0.312159 0.040695 -0.751296 -3.647799 14.178273 22.18211 -20.3759 49.933323 -16.701809 -16.74353 28.476532 -1e-06 -12.6906 -1e-06 16.081186 -17.900106 2.594964 -0.10592 -1.513857 -4.275878 -5.039041 -5.612871 -2.953558 2e-06 -11.020523 -1e-06 -6.111298 -15.89533 -3.84047 0.0 -0.0 2e-06 -10.283369 -5.680288 -4.341838 11.028291 -11.302404 -2.372631 -1.384268 -14.238579 -6.320119 -0.625442 -26.924187 -3.827599 -4.349043 -50.044949 -3.829423 -13.708527 -7.363476 -3.720937 18.14115 -14.052739 -3.242676 3e-06 -18.78727 3e-06 -0.429712 -8.456044 2.555503 0.0 -2e-06 0.0 -15.923538 -20.094482 -5.473581 30.41921 -7.190824 1.735929 4e-06 -8.162927 -3e-06 -1.861905 -22.861469 -6.167939 1e-06 -5e-06 -3e-06 -178.271255 -5.532296 -10.479768 13.239069 -0.009338 0.101185 -78.324364 2.417759 -5.29408 -4.789657 1.515818 2.159817 -1.0 0.0 -0.0 0.110593 -4.344158 -13.237297 15.647166 -0.017864 -0.135654 -79.048973 1.563851 -5.276752 -4.803508 0.63667 1.644744 -1.000001 0.0 0.0 
0.0 0.0 0.0 0.0 -0.0 0.0 -0.9652 99.816093 5.923432 90.05262 4.928619 89.948418 0.154514 0.52958 -0.248601 -10.641982 -0.720839 -0.06287 16.567011 -0.073581 -2.210683 19.035744 5.339588 2.746706 -2.45661 -0.586201 -0.204497 -31.68993 -0.662553 -0.088486 6e-06 0.0 0.0 0.06502 -0.002472 0.018083 0.077642 0.005631 0.017981 0.061838 -0.007882 0.020342 -133.668243 -74.841621 147.948761 31.987207 -56.226254 9.167737 26.719917 0.022238 -0.120595 4.034015 -2.949445 9.853683 17.636625 -26.322739 52.411205 -19.466658 -14.395597 29.410395 -1e-06 -8.774821 -2e-06 16.116526 -18.216434 6.075114 -0.609778 -1.795655 -3.889328 -4.807087 -11.046809 -2.93785 6e-06 -20.976015 -3e-06 -5.01997 -25.033554 -4.031878 5e-06 2e-06 1e-06 -10.634535 -5.686971 -3.565589 10.573274 -17.922951 -3.113899 3e-06 -13.821208 1e-06 -0.501779 -31.181501 -4.027011 -11.65262 -59.655815 7.705633 -13.982712 -7.150197 -2.875044 13.772729 -8.401491 -3.218241 0.347735 -34.211552 0.771657 -0.963032 -17.73337 2.621023 -1e-06 -1e-06 -0.0 -17.346422 -20.095215 -4.201778 21.757563 -1.638376 3.866426 1e-06 -6.338822 -0.0 -1.697587 -22.591742 -6.194005 0.0 -3e-06 -3e-06 23.447035 -65.100761 173.771027 34.096252 -46.945477 9.741413 29.452787 -0.320987 0.02405 -0.747806 -3.707424 14.079477 22.182114 -20.375891 49.933315 -16.701811 -16.74353 28.47653 -3e-06 -12.690601 -1e-06 16.102896 -17.885796 2.589277 -0.105919 -1.513856 -4.27588 -5.039041 -5.612869 -2.953557 4e-06 -11.02052 -2e-06 -6.111298 -15.895329 -3.84047 0.0 -0.0 2e-06 -10.283369 -5.680286 -4.341841 11.028294 -11.302405 -2.372634 -1.384266 -14.238579 -6.320121 -0.625439 -26.924187 -3.827599 -4.367477 -50.109543 -3.8272 -13.708526 -7.363476 -3.720943 18.141151 -14.052739 -3.242677 5e-06 -18.787266 1e-06 -0.429711 -8.456041 2.555502 -0.0 -1e-06 0.0 -15.923536 -20.094482 -5.473588 30.41921 -7.190826 1.735927 5e-06 -8.162927 -2e-06 -1.861904 -22.861467 -6.167937 -1e-06 -3e-06 -1e-06 -178.295609 -5.519357 -10.441322 13.212338 -0.008641 0.131295 -78.313522 2.396379 -5.334466 -4.771262 1.523084 2.165915 -0.999999 -0.0 0.0 0.079031 -4.355204 -13.257779 15.652079 -0.016735 -0.135498 -79.055275 1.542168 -5.284066 -4.774302 0.629684 1.643286 -1.000003 1e-06 -0.0 
0.0 0.0 0.0 0.0 -0.0 0.0 -0.974133 99.812958 5.928323 90.069748 4.891734 89.956589 0.153239 0.492051 -0.252483 -10.642856 -0.71936 -0.058755 16.561415 -0.087806 -2.20524 18.98621 5.310368 2.751283 -2.483023 -0.590616 -0.2407 -31.602995 -0.674156 -0.137447 6e-06 -0.0 -0.0 0.05942 -0.003487 0.014572 0.064235 0.000974 0.015798 0.05006 -0.005502 0.01488 -133.686905 -74.842285 147.946304 32.030807 -56.19149 9.183618 26.738005 0.014333 -0.133887 3.974661 -2.910916 9.853423 17.636623 -26.322731 52.411194 -19.466656 -14.395597 29.410381 1e-06 -8.77482 -1e-06 16.103762 -18.204885 6.059621 -0.609777 -1.795652 -3.889329 -4.80709 -11.046809 -2.937848 1e-06 -20.976013 0.0 -5.01997 -25.033548 -4.031878 6e-06 0.0 -1e-06 -10.634535 -5.686971 -3.565589 10.573271 -17.922945 -3.1139 1e-06 -13.821205 -1e-06 -0.501781 -31.181501 -4.027014 -11.646056 -59.621952 7.649152 -13.982714 -7.150198 -2.875044 13.772728 -8.401489 -3.21824 0.347729 -34.211544 0.771658 -0.963035 -17.73337 2.621021 -0.0 -0.0 0.0 -17.346416 -20.095215 -4.201784 21.757557 -1.638372 3.866428 -1e-06 -6.338822 0.0 -1.697592 -22.591747 -6.194005 -1e-06 -2e-06 -3e-06 23.321138 -65.078873 173.889893 34.026577 -46.924637 9.722228 29.37969 -0.276451 0.025844 -0.760216 -3.730781 13.953733 22.182117 -20.375891 49.933311 -16.701807 -16.743525 28.476522 -3e-06 -12.690599 -1e-06 16.111429 -17.852835 2.59704 -0.10592 -1.513855 -4.275883 -5.039041 -5.612872 -2.953553 3e-06 -11.020521 -2e-06 -6.111297 -15.89533 -3.840471 1e-06 -0.0 1e-06 -10.283367 -5.680285 -4.341837 11.02829 -11.302402 -2.372633 -1.384268 -14.238577 -6.320121 -0.62544 -26.924183 -3.827599 -4.397225 -50.11277 -3.802569 -13.708522 -7.363475 -3.720942 18.14115 -14.052739 -3.242675 7e-06 -18.787266 1e-06 -0.429709 -8.456043 2.555503 -0.0 -0.0 -1e-06 -15.923532 -20.094482 -5.473587 30.419205 -7.190824 1.735929 3e-06 -8.162925 -3e-06 -1.861901 -22.861467 -6.167942 -1e-06 -4e-06 -1e-06 -178.34903 -5.50797 -10.430475 13.240324 -0.009423 0.144842 -78.322418 2.36094 -5.350113 -4.75735 1.521641 2.16655 -0.999999 0.0 -0.0 0.004982 -4.380791 -13.28173 15.733913 -0.015589 -0.14268 -79.097023 1.542609 -5.297903 -4.756791 0.62317 1.641361 -1.000002 0.0 0.0 
0.0 0.0 0.0 0.0 -0.0 0.0 -0.979343 99.807426 5.933112 90.079636 4.838903 89.9748 0.150189 0.460255 -0.244548 -10.642558 -0.716609 -0.060642 16.546385 -0.11664 -2.200782 18.941479 5.264865 2.752762 -2.497669 -0.586243 -0.261862 -31.564381 -0.681217 -0.195842 6e-06 -0.0 -0.0 0.057472 -0.00218 0.015328 0.059653 0.001 0.01772 0.04513 -0.002994 0.014016 -133.677811 -74.821594 147.939423 32.151974 -56.140167 9.141347 26.738398 0.00042 -0.12727 3.950834 -2.824239 9.931457 17.636623 -26.322737 52.411205 -19.466658 -14.395597 29.410395 -0.0 -8.774821 -0.0 16.052057 -18.174173 6.068895 -0.609777 -1.795653 -3.889327 -4.807091 -11.046811 -2.937848 1e-06 -20.976015 -2e-06 -5.019973 -25.03356 -4.03188 6e-06 1e-06 -0.0 -10.634534 -5.68697 -3.565589 10.57327 -17.922951 -3.113896 2e-06 -13.821209 -1e-06 -0.501777 -31.181505 -4.027015 -11.621769 -59.575081 7.621318 -13.982716 -7.150199 -2.875041 13.772729 -8.401491 -3.218241 0.347732 -34.211555 0.771654 -0.963031 -17.73337 2.621022 -1e-06 -1e-06 -0.0 -17.346418 -20.095215 -4.201778 21.757555 -1.638373 3.866428 0.0 -6.338823 -2e-06 -1.697591 -22.591743 -6.194004 -1e-06 -3e-06 -3e-06 23.206781 -65.08374 173.987427 33.963226 -46.942612 9.758808 29.320944 -0.217615 0.036951 -0.776633 -3.731991 13.822659 22.182108 -20.375893 49.933315 -16.701807 -16.743526 28.476524 -1e-06 -12.6906 0.0 16.108286 -17.829279 2.612963 -0.10592 -1.513857 -4.275884 -5.039041 -5.612872 -2.953553 2e-06 -11.020523 -1e-06 -6.1113 -15.895332 -3.840471 0.0 -1e-06 0.0 -10.283371 -5.680289 -4.341837 11.028292 -11.302404 -2.372635 -1.384268 -14.23858 -6.32012 -0.625443 -26.924191 -3.8276 -4.411858 -50.096287 -3.780457 -13.708522 -7.363477 -3.720939 18.141146 -14.052737 -3.242675 4e-06 -18.78727 1e-06 -0.42971 -8.456045 2.555502 0.0 -1e-06 -1e-06 -15.923536 -20.094484 -5.473583 30.419207 -7.190822 1.735925 3e-06 -8.162925 -4e-06 -1.861905 -22.861469 -6.167942 -1e-06 -5e-06 -3e-06 -178.456329 -5.506956 -10.419883 13.333735 -0.01288 0.149057 -78.35775 2.324863 -5.337378 -4.734193 1.515287 2.163725 -0.999998 0.0 -0.0 -0.092433 -4.403555 -13.323667 15.83241 -0.016122 -0.145784 -79.147049 1.55663 -5.323675 -4.727242 0.619847 1.641279 -1.000003 -0.0 0.0 
